<svg width="30" height="30" viewBox="0 0 30 30" fill="none" xmlns="http://www.w3.org/2000/svg">
<g clip-path="url(#clip0_456_28)">
<path d="M11.7928 27.7802C16.9446 22.6569 20.9745 18.5616 25.457 14.1653C26.9369 12.6196 27.8741 11.1069 28.2688 9.62699C28.9594 6.83431 27.8976 4.41599 26.049 2.52357C24.2731 0.747715 22.3739 -0.0908766 20.3514 0.0077901C17.3177 0.15579 16.3311 1.12594 14.3579 3.06622L1.77888 15.6945L3.85073 17.717L16.4297 5.13802C17.7205 3.91084 19.2565 2.75389 21.0174 2.91819C23.7003 3.29484 26.0696 6.57859 25.457 8.88704C24.6803 10.9351 23.6094 11.8693 22.1273 13.3513C17.6188 17.8483 14.1034 21.3259 9.72098 25.7083C8.07398 27.2133 7.00883 27.6207 5.47868 26.2016C4.68942 25.4123 4.34411 24.6395 4.44276 23.8831C4.55223 23.0006 5.05183 22.3902 5.62663 21.8113L17.1203 10.3175C17.6454 9.79154 18.8412 8.78192 19.3402 9.23232C19.7229 10.1203 18.7372 10.9679 18.255 11.4521L7.69846 22.0086L9.72093 24.0805L20.3267 13.524C22.1535 11.6399 23.4659 9.33752 21.412 7.20986C19.1404 5.26016 16.7474 6.56179 15.0485 8.24579L3.55478 19.7395C2.37088 20.9234 1.69672 22.2059 1.53231 23.5872C1.40261 25.5235 2.27563 27.0779 3.45613 28.2735C4.56576 29.377 5.76453 29.9883 7.25453 30C9.04593 29.9283 10.8073 28.7483 11.7928 27.7802Z" fill="#0E202A"/>
</g>
<defs>
<clipPath id="clip0_456_28">
<rect width="30" height="30" fill="white"/>
</clipPath>
</defs>
</svg>
