<svg width="56" height="56" viewBox="0 0 56 56" fill="none" xmlns="http://www.w3.org/2000/svg">
<path d="M28.5 7C25.1848 7 22.0054 8.31314 19.6612 10.6506C17.317 12.988 16 16.1582 16 19.4638C16 20.1249 16.2634 20.7589 16.7322 21.2264C17.2011 21.6939 17.837 21.9565 18.5 21.9565C19.163 21.9565 19.7989 21.6939 20.2678 21.2264C20.7366 20.7589 21 20.1249 21 19.4638C21 15.3308 24.355 11.9855 28.5 11.9855C32.645 11.9855 36 15.3308 36 19.4638C36 21.4979 35.5025 22.6894 34.905 23.5245C34.25 24.4343 33.3425 25.1148 32.085 25.9798L31.795 26.1743C30.6775 26.937 29.2375 27.9167 28.1225 29.2827C26.805 30.898 26 32.9396 26 35.6667V36.913C26 37.5742 26.2634 38.2082 26.7322 38.6757C27.2011 39.1432 27.837 39.4058 28.5 39.4058C29.163 39.4058 29.7989 39.1432 30.2678 38.6757C30.7366 38.2082 31 37.5742 31 36.913V35.6667C31 34.0314 31.445 33.1141 32 32.4286C32.6425 31.6459 33.5075 31.0526 34.785 30.1776L34.9175 30.0854C36.1575 29.2379 37.75 28.1261 38.9675 26.426C40.25 24.6512 41 22.4127 41 19.4638C41 16.1582 39.683 12.988 37.3388 10.6506C34.9946 8.31314 31.8152 7 28.5 7ZM28.5 50C29.3288 50 30.1237 49.6717 30.7097 49.0874C31.2958 48.503 31.625 47.7105 31.625 46.8841C31.625 46.0577 31.2958 45.2651 30.7097 44.6808C30.1237 44.0964 29.3288 43.7681 28.5 43.7681C27.6712 43.7681 26.8763 44.0964 26.2903 44.6808C25.7042 45.2651 25.375 46.0577 25.375 46.8841C25.375 47.7105 25.7042 48.503 26.2903 49.0874C26.8763 49.6717 27.6712 50 28.5 50Z" fill="black"/>
</svg>
