<svg width="25" height="25" viewBox="0 0 25 25" fill="none" xmlns="http://www.w3.org/2000/svg">
<path d="M18.75 16.7502C17.9583 16.7502 17.25 17.0627 16.7083 17.5522L9.28125 13.2293C9.33333 12.9897 9.375 12.7502 9.375 12.5002C9.375 12.2502 9.33333 12.0106 9.28125 11.771L16.625 7.48975C17.1875 8.01058 17.9271 8.3335 18.75 8.3335C20.4792 8.3335 21.875 6.93766 21.875 5.2085C21.875 3.47933 20.4792 2.0835 18.75 2.0835C17.0208 2.0835 15.625 3.47933 15.625 5.2085C15.625 5.4585 15.6667 5.69808 15.7187 5.93766L8.375 10.2189C7.8125 9.69808 7.07292 9.37516 6.25 9.37516C4.52083 9.37516 3.125 10.771 3.125 12.5002C3.125 14.2293 4.52083 15.6252 6.25 15.6252C7.07292 15.6252 7.8125 15.3022 8.375 14.7814L15.7917 19.1147C15.7396 19.3335 15.7083 19.5627 15.7083 19.7918C15.7083 21.4689 17.0729 22.8335 18.75 22.8335C20.4271 22.8335 21.7917 21.4689 21.7917 19.7918C21.7917 18.1147 20.4271 16.7502 18.75 16.7502ZM18.75 4.16683C19.3229 4.16683 19.7917 4.63558 19.7917 5.2085C19.7917 5.78141 19.3229 6.25016 18.75 6.25016C18.1771 6.25016 17.7083 5.78141 17.7083 5.2085C17.7083 4.63558 18.1771 4.16683 18.75 4.16683ZM6.25 13.5418C5.67708 13.5418 5.20833 13.0731 5.20833 12.5002C5.20833 11.9272 5.67708 11.4585 6.25 11.4585C6.82292 11.4585 7.29167 11.9272 7.29167 12.5002C7.29167 13.0731 6.82292 13.5418 6.25 13.5418ZM18.75 20.8543C18.1771 20.8543 17.7083 20.3856 17.7083 19.8127C17.7083 19.2397 18.1771 18.771 18.75 18.771C19.3229 18.771 19.7917 19.2397 19.7917 19.8127C19.7917 20.3856 19.3229 20.8543 18.75 20.8543Z" fill="black"/>
</svg>
