<svg width="25" height="25" viewBox="0 0 25 25" fill="none" xmlns="http://www.w3.org/2000/svg">
<path d="M2.70312 5.96934C2.70312 5.73297 2.79702 5.50629 2.96415 5.33915C3.13129 5.17202 3.35797 5.07813 3.59434 5.07812H16.0713C16.3077 5.07813 16.5343 5.17202 16.7015 5.33915C16.8686 5.50629 16.9625 5.73297 16.9625 5.96934C16.9625 6.2057 16.8686 6.43238 16.7015 6.59952C16.5343 6.76665 16.3077 6.86055 16.0713 6.86055H3.59434C3.35797 6.86055 3.13129 6.76665 2.96415 6.59952C2.79702 6.43238 2.70312 6.2057 2.70312 5.96934ZM2.70312 17.8521C2.70312 17.6158 2.79702 17.3891 2.96415 17.222C3.13129 17.0548 3.35797 16.9609 3.59434 16.9609H14.883C15.1194 16.9609 15.3461 17.0548 15.5132 17.222C15.6803 17.3891 15.7742 17.6158 15.7742 17.8521C15.7742 18.0885 15.6803 18.3152 15.5132 18.4823C15.3461 18.6495 15.1194 18.7434 14.883 18.7434H3.59434C3.35797 18.7434 3.13129 18.6495 2.96415 18.4823C2.79702 18.3152 2.70312 18.0885 2.70312 17.8521ZM3.59434 11.0195C3.35797 11.0195 3.13129 11.1134 2.96415 11.2806C2.79702 11.4477 2.70312 11.6744 2.70312 11.9107C2.70312 12.1471 2.79702 12.3738 2.96415 12.5409C3.13129 12.7081 3.35797 12.802 3.59434 12.802H20.8244C21.0608 12.802 21.2875 12.7081 21.4546 12.5409C21.6217 12.3738 21.7156 12.1471 21.7156 11.9107C21.7156 11.6744 21.6217 11.4477 21.4546 11.2806C21.2875 11.1134 21.0608 11.0195 20.8244 11.0195H3.59434Z" fill="black"/>
</svg>
