<svg width="56" height="56" viewBox="0 0 56 56" fill="none" xmlns="http://www.w3.org/2000/svg">
<path d="M28 30.75C30.4111 30.75 32.7234 29.8018 34.4282 28.114C36.1331 26.4261 37.0909 24.1369 37.0909 21.75C37.0909 19.3631 36.1331 17.0739 34.4282 15.386C32.7234 13.6982 30.4111 12.75 28 12.75C25.5889 12.75 23.2766 13.6982 21.5718 15.386C19.8669 17.0739 18.9091 19.3631 18.9091 21.75C18.9091 24.1369 19.8669 26.4261 21.5718 28.114C23.2766 29.8018 25.5889 30.75 28 30.75ZM28 30.75C24.3834 30.75 20.9149 32.1723 18.3576 34.7041C15.8003 37.2358 14.3636 40.6696 14.3636 44.25V51M28 30.75C31.6166 30.75 35.0851 32.1723 37.6424 34.7041C40.1997 37.2358 41.6364 40.6696 41.6364 44.25V51M30.2727 12.75C31.1909 9.006 34.8523 6 39.3636 6C44.3 6 48.4091 10.0275 48.4545 15C48.4091 19.9725 44.3 24 39.3636 24M39.3636 24H37.0909M39.3636 24C46.8364 24 53 30.0435 53 37.5V42M25.7273 12.75C24.8091 9.006 21.1477 6 16.6364 6C11.7 6 7.59091 10.0275 7.54545 15C7.59091 19.9725 11.7 24 16.6364 24M16.6364 24H18.9091M16.6364 24C9.16364 24 3 30.0435 3 37.5V42" stroke="black" stroke-width="4.16667"/>
</svg>
