<svg width="36" height="36" viewBox="0 0 36 36" fill="none" xmlns="http://www.w3.org/2000/svg">
<g clip-path="url(#clip0_122_2721)">
<path d="M12.7784 25.1685H8.86281L6.91881 30.7117H8.52081L6.78906 35.2999L13.0768 28.3772H10.5049L12.7784 25.1685Z" fill="black"/>
<path d="M20.7881 25.1685H16.8726L14.9286 30.7117H16.5306L14.7988 35.2999L21.0865 28.3772H18.5146L20.7881 25.1685Z" fill="black"/>
<path d="M28.795 25.1685H24.8804L22.9364 30.7117H24.5378L22.8066 35.2999L29.094 28.3772H26.5225L28.795 25.1685Z" fill="black"/>
<path d="M33.2795 11.5781C32.2032 10.5006 30.7704 9.77469 29.1792 9.57316C29.0405 7.08194 27.9838 4.82998 26.3295 3.17719C24.5548 1.40066 22.093 0.29919 19.3829 0.299805C16.8445 0.29919 14.5226 1.26613 12.7807 2.84838C11.2831 4.20757 10.2096 6.029 9.77494 8.08478C9.35426 8.01484 8.92339 7.9754 8.48363 7.9754C6.3243 7.97424 4.36177 8.85259 2.94762 10.268C1.53272 11.6816 0.65375 13.6448 0.654297 15.8041C0.65375 17.9628 1.53272 19.9265 2.94755 21.3401C4.3617 22.7555 6.3243 23.6333 8.48356 23.6328H28.2864C30.2334 23.6334 32.0046 22.8411 33.2795 21.565C34.5556 20.2895 35.3485 18.5189 35.3474 16.5719C35.3485 14.6242 34.5556 12.853 33.2795 11.5781ZM31.9772 20.262C31.0288 21.208 29.7299 21.7904 28.2865 21.791H8.48363C6.82783 21.7904 5.33644 21.1225 4.25055 20.0372C3.16521 18.9506 2.49727 17.4605 2.49665 15.8041C2.49727 14.1477 3.16521 12.6569 4.25055 11.5704C5.33644 10.4857 6.82783 9.81714 8.48363 9.81714C9.10188 9.81714 9.6951 9.91045 10.2542 10.0833L11.3282 10.4151L11.443 9.29754C11.6493 7.28832 12.6006 5.50038 14.019 4.21235C15.4393 2.92433 17.315 2.14216 19.3829 2.14161C21.5894 2.14216 23.5795 3.03377 25.0272 4.47964C26.4731 5.92674 27.3644 7.91682 27.3656 10.1246C27.3656 10.2023 27.362 10.2932 27.3584 10.399L27.3225 11.3899L28.2949 11.3528C29.7347 11.3558 31.0306 11.9364 31.9772 12.8812C32.9231 13.8284 33.5044 15.1272 33.5056 16.5719C33.5043 18.016 32.9231 19.3148 31.9772 20.262Z" fill="black"/>
</g>
<defs>
<clipPath id="clip0_122_2721">
<rect width="35" height="35" fill="white" transform="translate(0.5 0.299805)"/>
</clipPath>
</defs>
</svg>
