<svg width="30" height="30" viewBox="0 0 30 30" fill="none" xmlns="http://www.w3.org/2000/svg">
<g clip-path="url(#clip0_122_2735)">
<path d="M30 30H7.5V25H0V2.5H5V0H7.5V2.5H15V0H17.5V2.5H22.5V7.5H30V30ZM10 27.5H27.5V15H22.5V25H10V27.5ZM2.5 22.5H20V5H2.5V7.5H20V10H2.5V22.5ZM22.5 12.5H27.5V10H22.5V12.5ZM17.5 20H10V17.5H17.5V20ZM7.5 20H5V17.5H7.5V20ZM17.5 15H10V12.5H17.5V15ZM7.5 15H5V12.5H7.5V15Z" fill="black"/>
</g>
<defs>
<clipPath id="clip0_122_2735">
<rect width="30" height="30" fill="white"/>
</clipPath>
</defs>
</svg>
