<svg width="35" height="35" viewBox="0 0 35 35" fill="none" xmlns="http://www.w3.org/2000/svg">
<path d="M27.7077 13.125H32.0827M27.7077 20.4167H32.0827M27.7077 27.7083H30.6243M23.3327 8.75L22.1647 26.2688C22.0625 27.8031 22.0113 28.5704 21.68 29.1521C21.3881 29.6643 20.948 30.0759 20.4176 30.333C19.8152 30.625 19.0462 30.625 17.5084 30.625H11.6569C10.1191 30.625 9.35021 30.625 8.74773 30.333C8.2173 30.0759 7.77721 29.6643 7.48544 29.1521C7.15403 28.5704 7.10289 27.8031 7.0006 26.2688L5.83268 8.75M2.91602 8.75H26.2493M20.416 8.75L20.0214 7.56594C19.6389 6.41849 19.4475 5.84477 19.0929 5.4206C18.7796 5.04602 18.3774 4.75609 17.923 4.57739C17.4083 4.375 16.8037 4.375 15.5942 4.375H13.5712C12.3617 4.375 11.757 4.375 11.2424 4.57739C10.788 4.75609 10.3857 5.04602 10.0725 5.4206C9.71775 5.84477 9.52652 6.41849 9.14403 7.56594L8.74935 8.75M17.4993 14.5833V24.7917M11.666 14.5833L11.6659 24.7914" stroke="black" stroke-width="2.6" stroke-linecap="round" stroke-linejoin="round"/>
</svg>
