<svg width="35" height="35" viewBox="0 0 35 35" fill="none" xmlns="http://www.w3.org/2000/svg">
<path d="M2.03813 4.41204C2.02576 4.34614 2.00519 4.28134 1.97948 4.21954C1.95378 4.15672 1.92186 4.09704 1.8848 4.04146C1.84782 3.98486 1.80462 3.93236 1.75718 3.88499C1.7098 3.83761 1.6573 3.79441 1.6007 3.75736C1.54513 3.72031 1.48538 3.68839 1.42263 3.66268C1.36083 3.63691 1.29609 3.61736 1.2302 3.60403C1.09737 3.5773 0.961543 3.5773 0.828721 3.60403C0.762822 3.61743 0.698018 3.63698 0.636221 3.66268C0.573398 3.68839 0.513857 3.72031 0.458213 3.75736C0.401475 3.79441 0.348975 3.83768 0.30167 3.88499C0.110127 4.07639 0 4.34204 0 4.61274C0 4.88454 0.110059 5.14909 0.301602 5.34056C0.348975 5.38794 0.401338 5.43114 0.458076 5.46922C0.513652 5.50627 0.573262 5.53819 0.636084 5.56389C0.697949 5.5896 0.762686 5.60922 0.828584 5.62255C0.894482 5.63594 0.962432 5.6421 1.02929 5.6421C1.09607 5.6421 1.16416 5.63594 1.22999 5.62255C1.29589 5.60915 1.36069 5.5896 1.42242 5.56389C1.48524 5.53819 1.54492 5.50627 1.6005 5.46922C1.6571 5.43114 1.7096 5.38787 1.75697 5.34056C1.94845 5.14909 2.05871 4.88454 2.05871 4.61274C2.05871 4.54582 2.05153 4.47787 2.03813 4.41204Z" fill="black"/>
<path d="M33.9706 12.8494C33.4022 12.8494 32.9412 13.3103 32.9412 13.8788V14.7023H14.2357C13.5947 12.9618 11.9198 11.717 9.95955 11.717H4.55513C3.63392 11.717 2.77628 11.9927 2.05878 12.4648V7.7013C2.05878 7.13275 1.59783 6.67188 1.02936 6.67188C0.460947 6.67188 0 7.13275 0 7.7013V16.2722V18.3396V27.2612V30.387C0 30.9555 0.460947 31.4164 1.02942 31.4164C1.59783 31.4164 2.05885 30.9555 2.05885 30.387V28.2906H13.4853H32.9412V30.387C32.9412 30.9555 33.4022 31.4164 33.9706 31.4164C34.5391 31.4164 35 30.9555 35 30.3869V27.2611V15.7317V13.8787C35 13.3103 34.5391 12.8494 33.9706 12.8494ZM12.4559 26.2318H2.05885V19.369H12.4559V26.2318ZM12.4559 17.3101H2.05885V16.2721C2.05885 14.8956 3.17871 13.7758 4.5552 13.7758H9.95962C11.336 13.7758 12.456 14.8956 12.456 16.2721L12.4559 17.3101ZM32.9412 26.2318H14.5147V26.2317V22.3388H26.8548C27.4232 22.3388 27.8842 21.8779 27.8842 21.3094C27.8842 20.7409 27.4233 20.28 26.8548 20.28H14.5147V18.3396V16.7612H32.9412V26.2318Z" fill="black"/>
<path d="M34.9793 10.5893C34.9659 10.5234 34.9463 10.4586 34.9206 10.3968C34.8949 10.334 34.863 10.2743 34.8259 10.2188C34.789 10.1622 34.7458 10.1097 34.6983 10.0623C34.6509 10.0149 34.5984 9.97171 34.5418 9.93466C34.4863 9.89761 34.4265 9.86568 34.3638 9.83998C34.302 9.81428 34.2372 9.79466 34.1714 9.78133C34.0386 9.75453 33.9027 9.75453 33.7699 9.78133C33.704 9.79473 33.6392 9.81428 33.5774 9.83998C33.5146 9.86568 33.4551 9.89761 33.3994 9.93466C33.3427 9.97171 33.2902 10.015 33.2429 10.0623C33.1956 10.1096 33.1523 10.1622 33.1142 10.2188C33.0772 10.2743 33.0463 10.3341 33.0206 10.3968C32.9949 10.4586 32.9742 10.5234 32.962 10.5893C32.9485 10.6552 32.9414 10.7232 32.9414 10.79C32.9414 10.8569 32.9485 10.9249 32.962 10.9918C32.9742 11.0566 32.9948 11.1215 33.0206 11.1843C33.0463 11.2461 33.0772 11.3058 33.1142 11.3614C33.1523 11.418 33.1956 11.4705 33.2429 11.5179C33.2902 11.5652 33.3427 11.6084 33.3994 11.6465C33.455 11.6836 33.5146 11.7155 33.5774 11.7412C33.6393 11.7669 33.704 11.7865 33.7699 11.7998C33.8358 11.8132 33.9038 11.8194 33.9706 11.8194C34.0374 11.8194 34.1055 11.8132 34.1714 11.7998C34.2373 11.7864 34.3021 11.7669 34.3638 11.7412C34.4266 11.7155 34.4863 11.6836 34.5418 11.6465C34.5984 11.6084 34.6509 11.5652 34.6983 11.5179C34.7458 11.4705 34.789 11.418 34.8259 11.3614C34.863 11.3058 34.8949 11.2461 34.9206 11.1843C34.9463 11.1215 34.9659 11.0567 34.9793 10.9918C34.9927 10.9249 34.9998 10.857 34.9998 10.79C34.9998 10.7231 34.9927 10.6552 34.9793 10.5893Z" fill="black"/>
<path d="M30.9532 21.1078C30.9398 21.0419 30.9201 20.9772 30.8944 20.9153C30.8686 20.8535 30.8367 20.7939 30.7997 20.7373C30.7627 20.6817 30.7195 20.6292 30.6721 20.5818C30.6237 20.5334 30.5712 20.4912 30.5156 20.4532C30.459 20.4161 30.3992 20.3842 30.3376 20.3585C30.2757 20.3328 30.211 20.3132 30.1451 20.2998C30.0123 20.2731 29.8754 20.2731 29.7426 20.2998C29.6767 20.3132 29.6117 20.3328 29.5501 20.3585C29.4884 20.3842 29.4286 20.4161 29.372 20.4532C29.3165 20.4912 29.2629 20.5335 29.2155 20.5818C29.1682 20.6292 29.125 20.6817 29.0879 20.7373C29.0509 20.7939 29.0189 20.8536 28.9932 20.9153C28.9675 20.9771 28.948 21.0419 28.9346 21.1078C28.9212 21.1748 28.9141 21.2417 28.9141 21.3096C28.9141 21.5804 29.0241 21.845 29.2157 22.0375C29.263 22.0848 29.3166 22.128 29.3721 22.1651C29.4289 22.2021 29.4886 22.2341 29.5502 22.2598C29.6119 22.2855 29.6768 22.3051 29.7427 22.3184C29.8095 22.3318 29.8766 22.338 29.9444 22.338C30.0114 22.338 30.0783 22.3318 30.1452 22.3184C30.2111 22.305 30.2759 22.2855 30.3377 22.2598C30.3995 22.2341 30.4592 22.2021 30.5157 22.1651C30.5713 22.128 30.6238 22.0848 30.6723 22.0375C30.8636 21.846 30.9739 21.5804 30.9739 21.3096C30.9738 21.2417 30.9666 21.1748 30.9532 21.1078Z" fill="black"/>
</svg>
