<svg width="35" height="35" viewBox="0 0 35 35" fill="none" xmlns="http://www.w3.org/2000/svg">
<path d="M34.2821 17.4799H29.3073L30.0172 14.608H34.2821C34.6791 14.608 35 14.2863 35 13.8899C35 13.4937 34.6783 13.1722 34.2821 13.1722H30.3724L31.2382 9.67028C31.4584 8.76734 31.5702 8.11088 31.5702 7.72023C31.5702 7.23566 31.4075 6.8457 31.0725 6.52739C30.7309 6.20309 30.3255 6.04518 29.8322 6.04518C29.3482 6.04518 28.9859 6.16083 28.7539 6.38827C28.4835 6.65496 28.2987 6.94587 28.1895 7.27791C28.0637 7.65894 27.9287 8.19813 27.7863 8.87844L26.8234 13.1722H21.424L20.5017 9.76733C20.224 8.74931 20.0008 8.0122 19.8392 7.57712C19.6983 7.19864 19.436 6.83858 19.0589 6.50692C18.7104 6.20053 18.1935 6.04487 17.5237 6.04487C16.8573 6.04487 16.3338 6.1961 15.9673 6.494C15.579 6.81031 15.2961 7.1881 15.126 7.61638C14.9353 8.09946 14.7136 8.82177 14.468 9.76359L13.5535 13.1718H8.17697L7.21561 8.88449C7.00441 7.88987 6.76037 7.13199 6.48887 6.62694C6.41098 6.48307 6.17456 6.04443 5.16814 6.04443C4.6664 6.04443 4.25934 6.2034 3.92418 6.53026C3.59177 6.854 3.43005 7.24396 3.43005 7.71948C3.43005 8.15163 3.54146 8.80591 3.76134 9.66566L4.62789 13.171H0.717879C0.321117 13.1711 0 13.4926 0 13.8888C0 14.285 0.321491 14.6069 0.717879 14.6069H4.98321L5.69304 17.4785H0.717879C0.321117 17.4785 0 17.8006 0 18.1964C0 18.5933 0.321491 18.9143 0.717879 18.9143H6.04811L7.59309 25.1644C7.70724 25.6211 7.83713 26.1176 7.98305 26.6541C8.1183 27.1521 8.29312 27.586 8.50245 27.9423C8.695 28.2703 8.9376 28.5163 9.24436 28.6931C9.54576 28.8671 9.94932 28.9557 10.4433 28.9557C11.0528 28.9557 11.5189 28.8122 11.8686 28.5181C12.2373 28.2079 12.4976 27.857 12.642 27.476C12.8094 27.0348 13.0401 26.2896 13.328 25.2607L15.0608 18.914H19.9603L21.6728 25.2648C21.9709 26.322 22.2044 27.0784 22.366 27.5081C22.5051 27.8778 22.7619 28.2194 23.1285 28.5234C23.4746 28.81 23.9553 28.9558 24.557 28.9558C25.1952 28.9558 25.6851 28.8079 26.0127 28.5182C26.3669 28.2039 26.6214 27.8346 26.7682 27.4218C26.9349 26.9507 27.1504 26.1904 27.4071 25.1633L28.9521 18.914H34.2821C34.6791 18.914 35 18.5927 35 18.1961C35.0004 17.8017 34.6791 17.4799 34.2821 17.4799ZM26.5014 14.6084L25.8573 17.4799H22.5913L21.8133 14.6084H26.5014ZM17.5264 9.88741L18.412 13.1722H16.6292L17.5264 9.88741ZM8.49896 14.6084H13.1674L12.3969 17.4799H9.14306L8.49896 14.6084ZM10.6246 24.0835L9.4653 18.9158H12.0115L10.6246 24.0835ZM15.4533 17.4799L16.2373 14.608H18.7989L19.5737 17.4799H15.4533ZM24.378 24.0747L22.9802 18.9158H25.5353L24.378 24.0747Z" fill="black"/>
</svg>
