<svg width="35" height="35" viewBox="0 0 35 35" fill="none" xmlns="http://www.w3.org/2000/svg">
<path d="M33.5423 17.5002C33.5423 26.3597 26.3602 33.5418 17.5007 33.5418C8.64109 33.5418 1.45898 26.3597 1.45898 17.5002C1.45898 8.6406 8.64109 1.4585 17.5007 1.4585C26.3602 1.4585 33.5423 8.6406 33.5423 17.5002ZM4.38561 17.5002C4.38561 24.7434 10.2574 30.6152 17.5007 30.6152C24.7439 30.6152 30.6157 24.7434 30.6157 17.5002C30.6157 10.2569 24.7439 4.38512 17.5007 4.38512C10.2574 4.38512 4.38561 10.2569 4.38561 17.5002Z" fill="#0F0F0F"/>
<path d="M17.4993 7.2915C16.6939 7.2915 16.041 7.94441 16.041 8.74984V18.1804C16.041 18.1804 16.041 18.5606 16.2258 18.8466C16.3495 19.0891 16.5422 19.2999 16.7956 19.4461L23.5328 23.3359C24.2303 23.7386 25.1222 23.4996 25.5248 22.802C25.9275 22.1045 25.6886 21.2126 24.9911 20.81L18.9577 17.3266V8.74984C18.9577 7.94443 18.3048 7.2915 17.4993 7.2915Z" fill="#0F0F0F"/>
</svg>
