<svg width="32" height="32" viewBox="0 0 32 32" fill="none" xmlns="http://www.w3.org/2000/svg">
<path d="M11.5558 15.9998C11.5558 15.4162 11.6708 14.8382 11.8942 14.2989C12.1175 13.7597 12.4449 13.2697 12.8576 12.857C13.2704 12.4443 13.7604 12.1169 14.2996 11.8935C14.8389 11.6701 15.4168 11.5552 16.0005 11.5552C16.5842 11.5552 17.1622 11.6701 17.7014 11.8935C18.2407 12.1169 18.7306 12.4443 19.1434 12.857C19.5561 13.2697 19.8835 13.7597 20.1068 14.2989C20.3302 14.8382 20.4452 15.4162 20.4452 15.9998C20.4452 17.1786 19.9769 18.3092 19.1434 19.1427C18.3098 19.9762 17.1793 20.4445 16.0005 20.4445C14.8217 20.4445 13.6912 19.9762 12.8576 19.1427C12.0241 18.3092 11.5558 17.1786 11.5558 15.9998ZM9.15317 15.9998C9.15317 16.899 9.33026 17.7893 9.67434 18.6199C10.0184 19.4506 10.5227 20.2054 11.1585 20.8412C11.7943 21.4769 12.5491 21.9813 13.3797 22.3253C14.2104 22.6694 15.1007 22.8465 15.9998 22.8465C16.899 22.8465 17.7893 22.6694 18.6199 22.3253C19.4506 21.9813 20.2054 21.4769 20.8412 20.8412C21.4769 20.2054 21.9813 19.4506 22.3253 18.6199C22.6694 17.7893 22.8465 16.899 22.8465 15.9998C22.8465 14.184 22.1252 12.4425 20.8412 11.1585C19.5572 9.87452 17.8157 9.15317 15.9998 9.15317C14.184 9.15317 12.4425 9.87452 11.1585 11.1585C9.87451 12.4425 9.15317 14.184 9.15317 15.9998M21.5172 8.8825C21.5172 9.19896 21.611 9.5083 21.7868 9.77142C21.9626 10.0345 22.2125 10.2396 22.5049 10.3607C22.7972 10.4818 23.1189 10.5135 23.4293 10.4518C23.7397 10.39 24.0248 10.2376 24.2485 10.0139C24.4723 9.79011 24.6247 9.50502 24.6864 9.19465C24.7482 8.88428 24.7165 8.56257 24.5954 8.27021C24.4743 7.97785 24.2692 7.72796 24.0061 7.55215C23.743 7.37634 23.4336 7.2825 23.1172 7.2825C22.6928 7.2825 22.2859 7.45108 21.9858 7.75113C21.6857 8.05119 21.5172 8.45816 21.5172 8.8825M10.6132 26.8532C9.31317 26.7932 8.6065 26.5772 8.13717 26.3945C7.55799 26.1807 7.03405 25.84 6.60384 25.3972C6.16105 24.967 5.82026 24.443 5.6065 23.8638C5.4225 23.3945 5.2065 22.6878 5.14784 21.3878C5.0825 19.9825 5.0705 19.5612 5.0705 16.0012C5.0705 12.4412 5.08384 12.0185 5.14784 10.6118C5.2065 9.31184 5.42517 8.6065 5.6065 8.13584C5.84784 7.51317 6.13717 7.06917 6.60384 6.6025C7.0705 6.13584 7.51317 5.8465 8.13717 5.60517C8.6065 5.42117 9.31317 5.20517 10.6132 5.1465C12.0185 5.07984 12.4398 5.0665 15.9998 5.0665C19.5598 5.0665 19.9812 5.07984 21.3878 5.14517C22.6878 5.20384 23.3932 5.4225 23.8638 5.60384C24.4865 5.84384 24.9305 6.1345 25.3972 6.60117C25.8638 7.06784 26.1532 7.51184 26.3958 8.1345C26.5785 8.60384 26.7958 9.3105 26.8532 10.6105C26.9185 12.0172 26.9318 12.4372 26.9318 15.9985C26.9318 19.5585 26.9185 19.9798 26.8532 21.3865C26.7945 22.6865 26.5772 23.3932 26.3958 23.8625C26.1821 24.4417 25.8413 24.9656 25.3985 25.3958C24.9683 25.8386 24.4444 26.1794 23.8652 26.3932C23.3945 26.5758 22.6878 26.7932 21.3878 26.8518C19.9825 26.9158 19.5612 26.9292 15.9998 26.9292C12.4398 26.9292 12.0185 26.9158 10.6132 26.8518M10.5025 2.7465C9.08384 2.81184 8.11317 3.03717 7.2665 3.3665C6.37647 3.70093 5.57015 4.22558 4.90384 4.90384C4.22558 5.57015 3.70093 6.37647 3.3665 7.2665C3.03717 8.1145 2.81184 9.08384 2.74784 10.5025C2.67984 11.9238 2.6665 12.3785 2.6665 15.9998C2.6665 19.6212 2.68117 20.0758 2.7465 21.4972C2.81184 22.9158 3.03717 23.8852 3.3665 24.7332C3.7011 25.6227 4.22574 26.4286 4.90384 27.0945C5.57002 27.7732 6.37635 28.2984 7.2665 28.6332C8.1145 28.9625 9.08384 29.1878 10.5025 29.2518C11.9252 29.3172 12.3785 29.3332 15.9998 29.3332C19.6212 29.3332 20.0758 29.3185 21.4972 29.2532C22.9158 29.1878 23.8852 28.9625 24.7332 28.6332C25.6229 28.2982 26.4287 27.7731 27.0945 27.0945C27.7729 26.4291 28.298 25.6237 28.6332 24.7345C28.9625 23.8852 29.1892 22.9158 29.2518 21.4972C29.3172 20.0745 29.3318 19.6212 29.3318 15.9998C29.3318 12.3785 29.3172 11.9238 29.2518 10.5025C29.1878 9.08384 28.9625 8.11317 28.6332 7.2665C28.2984 6.37635 27.7732 5.57002 27.0945 4.90384C26.429 4.2259 25.6236 3.70127 24.7345 3.3665C23.8852 3.03717 22.9158 2.8105 21.4985 2.74784C20.0758 2.6825 19.6225 2.6665 15.9998 2.6665C12.3772 2.6665 11.9238 2.68117 10.5012 2.7465" fill="white"/>
<path d="M11.5558 15.9998C11.5558 15.4162 11.6708 14.8382 11.8942 14.2989C12.1175 13.7597 12.4449 13.2697 12.8576 12.857C13.2704 12.4443 13.7604 12.1169 14.2996 11.8935C14.8389 11.6701 15.4168 11.5552 16.0005 11.5552C16.5842 11.5552 17.1622 11.6701 17.7014 11.8935C18.2407 12.1169 18.7306 12.4443 19.1434 12.857C19.5561 13.2697 19.8835 13.7597 20.1068 14.2989C20.3302 14.8382 20.4452 15.4162 20.4452 15.9998C20.4452 17.1786 19.9769 18.3092 19.1434 19.1427C18.3098 19.9762 17.1793 20.4445 16.0005 20.4445C14.8217 20.4445 13.6912 19.9762 12.8576 19.1427C12.0241 18.3092 11.5558 17.1786 11.5558 15.9998ZM9.15317 15.9998C9.15317 16.899 9.33026 17.7893 9.67434 18.6199C10.0184 19.4506 10.5227 20.2054 11.1585 20.8412C11.7943 21.4769 12.5491 21.9813 13.3797 22.3253C14.2104 22.6694 15.1007 22.8465 15.9998 22.8465C16.899 22.8465 17.7893 22.6694 18.6199 22.3253C19.4506 21.9813 20.2054 21.4769 20.8412 20.8412C21.4769 20.2054 21.9813 19.4506 22.3253 18.6199C22.6694 17.7893 22.8465 16.899 22.8465 15.9998C22.8465 14.184 22.1252 12.4425 20.8412 11.1585C19.5572 9.87452 17.8157 9.15317 15.9998 9.15317C14.184 9.15317 12.4425 9.87452 11.1585 11.1585C9.87451 12.4425 9.15317 14.184 9.15317 15.9998M21.5172 8.8825C21.5172 9.19896 21.611 9.5083 21.7868 9.77142C21.9626 10.0345 22.2125 10.2396 22.5049 10.3607C22.7972 10.4818 23.1189 10.5135 23.4293 10.4518C23.7397 10.39 24.0248 10.2376 24.2485 10.0139C24.4723 9.79011 24.6247 9.50502 24.6864 9.19465C24.7482 8.88428 24.7165 8.56257 24.5954 8.27021C24.4743 7.97785 24.2692 7.72796 24.0061 7.55215C23.743 7.37634 23.4336 7.2825 23.1172 7.2825C22.6928 7.2825 22.2859 7.45108 21.9858 7.75113C21.6857 8.05119 21.5172 8.45816 21.5172 8.8825M10.6132 26.8532C9.31317 26.7932 8.6065 26.5772 8.13717 26.3945C7.55799 26.1807 7.03405 25.84 6.60384 25.3972C6.16105 24.967 5.82026 24.443 5.6065 23.8638C5.4225 23.3945 5.2065 22.6878 5.14784 21.3878C5.0825 19.9825 5.0705 19.5612 5.0705 16.0012C5.0705 12.4412 5.08384 12.0185 5.14784 10.6118C5.2065 9.31184 5.42517 8.6065 5.6065 8.13584C5.84784 7.51317 6.13717 7.06917 6.60384 6.6025C7.0705 6.13584 7.51317 5.8465 8.13717 5.60517C8.6065 5.42117 9.31317 5.20517 10.6132 5.1465C12.0185 5.07984 12.4398 5.0665 15.9998 5.0665C19.5598 5.0665 19.9812 5.07984 21.3878 5.14517C22.6878 5.20384 23.3932 5.4225 23.8638 5.60384C24.4865 5.84384 24.9305 6.1345 25.3972 6.60117C25.8638 7.06784 26.1532 7.51184 26.3958 8.1345C26.5785 8.60384 26.7958 9.3105 26.8532 10.6105C26.9185 12.0172 26.9318 12.4372 26.9318 15.9985C26.9318 19.5585 26.9185 19.9798 26.8532 21.3865C26.7945 22.6865 26.5772 23.3932 26.3958 23.8625C26.1821 24.4417 25.8413 24.9656 25.3985 25.3958C24.9683 25.8386 24.4444 26.1794 23.8652 26.3932C23.3945 26.5758 22.6878 26.7932 21.3878 26.8518C19.9825 26.9158 19.5612 26.9292 15.9998 26.9292C12.4398 26.9292 12.0185 26.9158 10.6132 26.8518M10.5025 2.7465C9.08384 2.81184 8.11317 3.03717 7.2665 3.3665C6.37647 3.70093 5.57015 4.22558 4.90384 4.90384C4.22558 5.57015 3.70093 6.37647 3.3665 7.2665C3.03717 8.1145 2.81184 9.08384 2.74784 10.5025C2.67984 11.9238 2.6665 12.3785 2.6665 15.9998C2.6665 19.6212 2.68117 20.0758 2.7465 21.4972C2.81184 22.9158 3.03717 23.8852 3.3665 24.7332C3.7011 25.6227 4.22574 26.4286 4.90384 27.0945C5.57002 27.7732 6.37635 28.2984 7.2665 28.6332C8.1145 28.9625 9.08384 29.1878 10.5025 29.2518C11.9252 29.3172 12.3785 29.3332 15.9998 29.3332C19.6212 29.3332 20.0758 29.3185 21.4972 29.2532C22.9158 29.1878 23.8852 28.9625 24.7332 28.6332C25.6229 28.2982 26.4287 27.7731 27.0945 27.0945C27.7729 26.4291 28.298 25.6237 28.6332 24.7345C28.9625 23.8852 29.1892 22.9158 29.2518 21.4972C29.3172 20.0745 29.3318 19.6212 29.3318 15.9998C29.3318 12.3785 29.3172 11.9238 29.2518 10.5025C29.1878 9.08384 28.9625 8.11317 28.6332 7.2665C28.2984 6.37635 27.7732 5.57002 27.0945 4.90384C26.429 4.2259 25.6236 3.70127 24.7345 3.3665C23.8852 3.03717 22.9158 2.8105 21.4985 2.74784C20.0758 2.6825 19.6225 2.6665 15.9998 2.6665C12.3772 2.6665 11.9238 2.68117 10.5012 2.7465" fill="white"/>
</svg>
