<svg width="32" height="32" viewBox="0 0 32 32" fill="none" xmlns="http://www.w3.org/2000/svg">
<path d="M16.0001 4C23.7335 4 30.0015 8.88533 30.0015 14.9133C30.0015 20.94 23.7335 25.8253 16.0015 25.8253C15.2316 25.824 14.4626 25.775 13.6988 25.6787L7.82147 29.5227C7.15347 29.876 6.91747 29.8373 7.19213 28.972L8.38146 24.068C4.54146 22.1213 2.00146 18.748 2.00146 14.9133C2.00146 8.88667 8.26813 4 16.0015 4M23.8788 14.7467L25.8388 12.848C25.9519 12.7305 26.015 12.5738 26.0148 12.4107C26.0146 12.2477 25.9511 12.0911 25.8377 11.9739C25.7244 11.8567 25.5699 11.7881 25.407 11.7825C25.244 11.7769 25.0853 11.8348 24.9641 11.944L22.3935 14.432V12.376C22.3935 12.2091 22.3272 12.049 22.2091 11.931C22.0911 11.813 21.931 11.7467 21.7641 11.7467C21.5972 11.7467 21.4371 11.813 21.3191 11.931C21.2011 12.049 21.1348 12.2091 21.1348 12.376V15.7853C21.1126 15.8828 21.1126 15.9839 21.1348 16.0813V18C21.1348 18.1669 21.2011 18.327 21.3191 18.445C21.4371 18.563 21.5972 18.6293 21.7641 18.6293C21.931 18.6293 22.0911 18.563 22.2091 18.445C22.3272 18.327 22.3935 18.1669 22.3935 18V16.1827L22.9628 15.632L24.8668 18.3427C24.9143 18.4103 24.9747 18.468 25.0446 18.5123C25.1144 18.5567 25.1922 18.5868 25.2737 18.601C25.3552 18.6153 25.4387 18.6133 25.5194 18.5953C25.6001 18.5773 25.6765 18.5435 25.7441 18.496C25.8118 18.4485 25.8695 18.3881 25.9138 18.3182C25.9581 18.2484 25.9883 18.1706 26.0025 18.0891C26.0167 18.0076 26.0148 17.9241 25.9968 17.8434C25.9787 17.7627 25.945 17.6863 25.8975 17.6187L23.8788 14.7467ZM19.9348 17.312H17.9881V12.396C17.9807 12.2343 17.9112 12.0816 17.7941 11.9698C17.677 11.858 17.5214 11.7956 17.3595 11.7956C17.1976 11.7956 17.0419 11.858 16.9248 11.9698C16.8077 12.0816 16.7382 12.2343 16.7308 12.396V17.9413C16.7308 18.288 17.0108 18.5707 17.3588 18.5707H19.9348C20.1017 18.5707 20.2618 18.5044 20.3798 18.3863C20.4978 18.2683 20.5641 18.1082 20.5641 17.9413C20.5641 17.7744 20.4978 17.6144 20.3798 17.4963C20.2618 17.3783 20.1017 17.312 19.9348 17.312ZM12.1255 15.8573L13.0535 13.58L13.9041 15.856L12.1255 15.8573ZM15.4895 16.5067L15.4921 16.4853C15.4917 16.3268 15.4312 16.1744 15.3228 16.0587L13.9281 12.3253C13.8697 12.1474 13.7583 11.9916 13.6089 11.8787C13.4595 11.7657 13.2792 11.7011 13.0921 11.6933C12.9038 11.6932 12.7199 11.7501 12.5645 11.8565C12.4091 11.9629 12.2895 12.1138 12.2215 12.2893L10.0055 17.7227C9.94234 17.8772 9.9432 18.0505 10.0078 18.2044C10.0725 18.3583 10.1956 18.4802 10.3501 18.5433C10.5047 18.6065 10.6779 18.6056 10.8318 18.541C10.9858 18.4763 11.1077 18.3532 11.1708 18.1987L11.6135 17.1147H14.3735L14.7708 18.1813C14.7979 18.2611 14.8407 18.3345 14.8968 18.3974C14.9528 18.4603 15.0208 18.5113 15.0969 18.5474C15.173 18.5835 15.2556 18.6039 15.3397 18.6075C15.4238 18.6111 15.5078 18.5978 15.5867 18.5684C15.6656 18.5389 15.7378 18.4939 15.799 18.4361C15.8602 18.3782 15.9092 18.3087 15.943 18.2316C15.9768 18.1544 15.9948 18.0713 15.9959 17.9871C15.997 17.9029 15.9812 17.8193 15.9495 17.7413L15.4895 16.5067ZM11.0588 12.4027C11.0591 12.32 11.0432 12.2382 11.0117 12.1617C10.9803 12.0853 10.9341 12.0158 10.8757 11.9573C10.8174 11.8989 10.748 11.8525 10.6716 11.8209C10.5953 11.7893 10.5134 11.7732 10.4308 11.7733H6.10413C5.93722 11.7733 5.77715 11.8396 5.65913 11.9577C5.5411 12.0757 5.4748 12.2358 5.4748 12.4027C5.4748 12.5696 5.5411 12.7297 5.65913 12.8477C5.77715 12.9657 5.93722 13.032 6.10413 13.032H7.6508V18.0133C7.6508 18.1802 7.7171 18.3403 7.83513 18.4583C7.95315 18.5764 8.11322 18.6427 8.28013 18.6427C8.44704 18.6427 8.60712 18.5764 8.72514 18.4583C8.84316 18.3403 8.90947 18.1802 8.90947 18.0133V13.032H10.4295C10.5122 13.0324 10.5942 13.0163 10.6707 12.9848C10.7472 12.9533 10.8167 12.907 10.8753 12.8485C10.9338 12.79 10.9801 12.7204 11.0116 12.6439C11.0431 12.5674 11.0592 12.4854 11.0588 12.4027Z" fill="white"/>
</svg>
